<svg width="22" height="22" viewBox="0 0 22 22" fill="none" xmlns="http://www.w3.org/2000/svg">
<path d="M3.95 15.97L7.5 19.5C10.81 22.83 16.19 22.83 19.5 19.5C22.81 16.17 22.83 10.81 19.5 7.5L13.5 1.5C12.53 0.499999 10.94 0.5 9.96 1.5C9.84 1.6 9.73 1.73 9.64 1.87L9.25 1.5C8.28 0.5 6.69 0.5 5.71 1.5C5.55 1.64 5.41 1.83 5.3 2C4.38 1.62 3.28 1.79 2.53 2.54C1.66 3.41 1.57 4.76 2.25 5.74C1.93658 5.94349 1.6724 6.2142 1.47663 6.53251C1.28087 6.85081 1.15844 7.20871 1.11822 7.58022C1.07801 7.95173 1.12102 8.32754 1.24414 8.68036C1.36725 9.03318 1.56738 9.35416 1.83 9.62L4.34 12.13C4.2 12.22 4.07 12.33 3.95 12.45C3.49301 12.9219 3.2375 13.5531 3.2375 14.21C3.2375 14.8669 3.49301 15.4981 3.95 15.97ZM5.37 14.56C5.17 14.36 5.17 14.05 5.37 13.85C5.57 13.65 5.88 13.65 6.08 13.85L9.26 17.03C9.8225 16.4682 10.585 16.1526 11.38 16.1526C12.175 16.1526 12.9375 16.4682 13.5 17.03L14.91 15.62C14.2223 14.9322 13.349 14.46 12.3969 14.261C11.4449 14.0621 10.4555 14.1451 9.55 14.5L3.25 8.2C3.05 8 3.05 7.69 3.25 7.5C3.45 7.31 3.76 7.29 3.96 7.5L8.56 12.09L9.97 10.68L3.96 4.67C3.76 4.47 3.76 4.16 3.96 3.96C4.16 3.76 4.47 3.76 4.67 3.96L10.68 9.97L12.09 8.56L7.14 3.61C6.94 3.41 6.94 3.1 7.14 2.9C7.34 2.7 7.65 2.7 7.85 2.9L13.5 8.56L14.92 7.15L11.38 3.61C11.18 3.41 11.18 3.1 11.38 2.9C11.58 2.7 11.89 2.7 12.09 2.9L18.1 8.9C20.64 11.44 20.64 15.55 18.1 18.09C15.56 20.63 11.45 20.63 8.91 18.09L5.37 14.56ZM16 -6.99382e-07C19.31 -8.44067e-07 22 2.69 22 6L20.5 6C20.5 3.5 18.5 1.5 16 1.5L16 -6.99382e-07ZM6 22C2.69 22 -1.17584e-07 19.31 -2.62268e-07 16L1.5 16C1.5 18.5 3.5 20.5 6 20.5L6 22Z" fill="black"/>
</svg>
