<svg width="400" height="400" viewBox="0 0 400 400" fill="none" xmlns="http://www.w3.org/2000/svg">
<path d="M351.602 0H356.252C380.4 0 399.998 19.5996 399.998 43.7491V48.399C399.982 106.408 376.927 162.035 335.903 203.046L324.454 214.521C316.588 222.37 308.431 229.904 299.981 237.12V317.293C299.981 332.493 292.107 346.593 279.158 354.543L209.814 397.217C207.377 398.717 204.628 399.64 201.779 399.914C198.93 400.188 196.056 399.806 193.378 398.797C190.699 397.788 188.287 396.18 186.326 394.094C184.366 392.009 182.908 389.503 182.066 386.767L158.218 309.219C156.913 308.295 155.699 307.249 154.593 306.094L93.8735 245.395C92.7271 244.288 91.6892 243.074 90.7738 241.77L13.2303 217.92C10.4948 217.078 7.98841 215.621 5.90327 213.66C3.81812 211.699 2.20957 209.287 1.20089 206.608C0.19221 203.93 -0.189812 201.056 0.0841048 198.206C0.358021 195.357 1.2806 192.609 2.78114 190.171L45.5276 120.822C49.4417 114.46 54.9198 109.206 61.4399 105.56C67.9599 101.915 75.3047 100 82.7745 99.9979H162.868C170.084 91.5314 177.617 83.3733 185.466 75.5234L196.94 64.0737C237.958 23.0504 293.592 0.00244436 351.602 0ZM223.463 90.5731H223.413L211.964 102.023C192.965 121.022 176.042 141.972 161.468 164.522L123.971 222.445L177.542 276.019L235.462 238.52C258.01 223.945 278.958 207.021 297.932 188.021L309.406 176.571C326.234 159.739 339.582 139.756 348.688 117.764C357.794 95.772 362.479 72.2018 362.476 48.399V43.7491C362.476 42.0915 361.818 40.5018 360.646 39.3298C359.474 38.1577 357.884 37.4992 356.227 37.4992H351.577C303.526 37.5062 257.443 56.5966 223.463 90.5731ZM89.024 363.992C70.7255 382.292 30.6788 390.117 13.9052 392.692C13.0008 392.845 12.0728 392.78 11.1987 392.502C10.3246 392.224 9.52978 391.74 8.88063 391.092C8.23246 390.443 7.74902 389.648 7.4707 388.774C7.19238 387.9 7.12726 386.971 7.28076 386.067C9.85555 369.292 17.6799 329.243 36.0284 310.994C39.421 307.148 43.5655 304.037 48.2062 301.855C52.847 299.672 57.8856 298.464 63.0114 298.303C68.1372 298.143 73.2414 299.035 78.0094 300.923C82.7775 302.811 87.1081 305.657 90.7344 309.283C94.3606 312.91 97.2056 317.24 99.0938 322.009C100.982 326.777 101.874 331.882 101.713 337.008C101.553 342.134 100.344 347.173 98.162 351.814C95.9796 356.455 92.8696 360.6 89.024 363.992ZM262.51 265.619C260.31 267.119 258.093 268.578 255.86 269.994L197.115 308.019L210.814 352.593L259.535 322.593C260.444 322.034 261.195 321.251 261.716 320.318C262.237 319.386 262.51 318.336 262.51 317.268V265.619ZM91.9737 202.896L130.021 144.147C131.47 141.897 132.937 139.68 134.42 137.497H82.7495C81.6818 137.497 80.6318 137.77 79.6997 138.291C78.7675 138.812 77.9844 139.563 77.4249 140.472L47.4274 189.221L91.9737 202.896ZM300.006 124.997C300.006 131.628 297.373 137.986 292.685 142.675C287.997 147.363 281.638 149.997 275.008 149.997C268.379 149.997 262.02 147.363 257.332 142.675C252.644 137.986 250.011 131.628 250.011 124.997C250.011 118.367 252.644 112.008 257.332 107.32C262.02 102.632 268.379 99.9979 275.008 99.9979C281.638 99.9979 287.997 102.632 292.685 107.32C297.373 112.008 300.006 118.367 300.006 124.997Z" fill="black"/>
</svg>
