<svg width="200" height="188" viewBox="0 0 200 188" fill="none" xmlns="http://www.w3.org/2000/svg">
<path d="M131.25 0.00813802C132.943 0.00813802 134.408 0.626628 135.645 1.86361L198.145 64.3636C199.382 65.6006 200 67.0654 200 68.7581C200 70.4508 199.382 71.9157 198.145 73.1527L174.414 96.8831C176.042 98.5107 177.637 100.073 179.199 101.571C180.762 103.068 182.129 104.598 183.301 106.16C184.473 107.723 185.449 109.481 186.23 111.434C187.012 113.387 187.402 115.568 187.402 117.977C187.402 120.581 186.914 123.055 185.938 125.399C184.961 127.743 183.626 129.793 181.934 131.551C180.241 133.309 178.255 134.709 175.977 135.75C173.698 136.792 171.257 137.345 168.652 137.41C168.522 140.08 167.969 142.521 166.992 144.735C166.016 146.948 164.714 148.901 163.086 150.594C161.458 152.287 159.505 153.621 157.227 154.598C154.948 155.575 152.507 156.095 149.902 156.16C149.837 158.765 149.284 161.206 148.242 163.485C147.201 165.763 145.801 167.749 144.043 169.442C142.285 171.134 140.234 172.502 137.891 173.543C135.547 174.585 133.073 175.073 130.469 175.008C128.385 175.008 126.27 174.65 124.121 173.934C123.405 175.952 122.461 177.775 121.289 179.403C120.117 181.03 118.685 182.463 116.992 183.7C115.299 184.937 113.509 185.881 111.621 186.532C109.733 187.183 107.682 187.508 105.469 187.508C103.776 187.508 102.279 187.378 100.977 187.118C99.6745 186.857 98.4701 186.401 97.3633 185.75C96.2565 185.099 95.1497 184.383 94.043 183.602C92.9362 182.821 91.7969 181.877 90.625 180.77C88.3464 182.853 86.1328 184.481 83.9844 185.653C81.8359 186.825 79.1016 187.443 75.7812 187.508C73.1771 187.508 70.7031 187.02 68.3594 186.043C66.0156 185.067 63.9648 183.732 62.207 182.039C60.4492 180.347 59.0495 178.361 58.0078 176.082C56.9661 173.804 56.4128 171.33 56.3477 168.66C53.8086 168.595 51.3997 168.075 49.1211 167.098C46.8424 166.121 44.8568 164.787 43.1641 163.094C41.4714 161.401 40.1367 159.416 39.1602 157.137C38.1836 154.858 37.6628 152.45 37.5977 149.91C34.9935 149.845 32.5846 149.325 30.3711 148.348C28.1576 147.371 26.2044 146.037 24.5117 144.344C22.819 142.651 21.4844 140.666 20.5078 138.387C19.5312 136.108 18.9779 133.7 18.8477 131.16C16.1784 131.095 13.7044 130.542 11.4258 129.5C9.14714 128.459 7.16146 127.059 5.46875 125.301C3.77604 123.543 2.44141 121.525 1.46484 119.246C0.488281 116.968 0 114.494 0 111.825C0 109.155 0.488281 106.649 1.46484 104.305C2.44141 101.961 3.8737 99.8454 5.76172 97.9574L16.1133 87.5081L1.85547 73.1527C0.61849 71.9157 0 70.4508 0 68.7581C0 67.0654 0.61849 65.6006 1.85547 64.3636L64.3555 1.86361C65.5924 0.626628 67.0573 0.00813802 68.75 0.00813802C70.4427 0.00813802 71.9076 0.626628 73.1445 1.86361L86.0352 14.7542C86.8815 14.4938 88.5091 13.9404 90.918 13.0941C93.3268 12.2477 96.1589 11.3037 99.4141 10.262C102.669 9.22038 106.022 8.08105 109.473 6.84408C112.923 5.6071 116.243 4.50033 119.434 3.52376C122.624 2.5472 125.26 1.70085 127.344 0.984701C129.427 0.268555 130.729 -0.0569661 131.25 0.00813802ZM30.4688 93.7581C28.5807 93.7581 26.9531 94.4417 25.5859 95.8089L14.5508 106.746C13.1836 108.114 12.5 109.774 12.5 111.727C12.5 113.68 13.151 115.308 14.4531 116.61C15.7552 117.912 17.4154 118.595 19.4336 118.66C21.4518 118.66 23.112 118.009 24.4141 116.707L35.4492 105.77C36.8164 104.403 37.5 102.743 37.5 100.789C37.5 98.8363 36.8164 97.1761 35.4492 95.8089C34.082 94.4417 32.4219 93.7581 30.4688 93.7581ZM49.2188 112.508C48.3073 112.508 47.4284 112.671 46.582 112.996C45.7357 113.322 44.9544 113.843 44.2383 114.559L33.3008 125.594C31.9336 126.961 31.25 128.621 31.25 130.575C31.25 132.463 31.9336 134.058 33.3008 135.36C34.668 136.662 36.3281 137.345 38.2812 137.41C39.1927 137.41 40.0716 137.248 40.918 136.922C41.7643 136.597 42.5456 136.108 43.2617 135.457L54.1992 124.422C55.5664 123.055 56.25 121.427 56.25 119.539C56.25 117.586 55.5664 115.926 54.1992 114.559C52.832 113.192 51.1719 112.508 49.2188 112.508ZM67.9688 131.258C66.0807 131.258 64.4531 131.942 63.0859 133.309L52.0508 144.246C50.6836 145.614 50 147.274 50 149.227C50 151.18 50.651 152.808 51.9531 154.11C53.2552 155.412 54.9154 156.095 56.9336 156.16C58.9518 156.16 60.612 155.509 61.9141 154.207L72.9492 143.27C74.3164 141.903 75 140.243 75 138.289C75 136.336 74.3164 134.676 72.9492 133.309C71.582 131.942 69.9219 131.258 67.9688 131.258ZM68.75 168.075C68.75 169.963 69.4336 171.558 70.8008 172.86C72.168 174.162 73.8281 174.845 75.7812 174.91C76.6927 174.91 77.5716 174.748 78.418 174.422C79.2643 174.097 80.0456 173.608 80.7617 172.957L91.6992 161.922C93.0664 160.555 93.75 158.927 93.75 157.039C93.75 155.086 93.0664 153.426 91.6992 152.059C90.332 150.692 88.6719 150.008 86.7188 150.008C85.8073 150.008 84.9284 150.171 84.082 150.496C83.2357 150.822 82.4544 151.343 81.7383 152.059L70.8008 163.094C69.4336 164.461 68.75 166.121 68.75 168.075ZM167.969 125.008C169.857 125.008 171.484 124.325 172.852 122.957C174.219 121.59 174.935 119.963 175 118.075C175 116.121 174.316 114.461 172.949 113.094L111.23 51.2777C111.035 51.0824 110.71 50.9196 110.254 50.7894C109.798 50.6592 109.342 50.529 108.887 50.3988C108.431 50.2686 107.943 50.1709 107.422 50.1058C106.901 50.0407 106.51 50.0081 106.25 50.0081C104.557 50.0081 102.962 50.3337 101.465 50.9847C99.9674 51.6357 98.6328 52.5146 97.4609 53.6214C96.2891 54.7282 95.3776 56.0628 94.7266 57.6253C94.0755 59.1878 93.75 60.8154 93.75 62.5081C93.75 65.9587 93.099 69.1813 91.7969 72.1761C90.4948 75.1709 88.7044 77.8402 86.4258 80.1839C84.1471 82.5277 81.5104 84.318 78.5156 85.555C75.5208 86.792 72.2656 87.443 68.75 87.5081C66.1458 87.5081 63.7044 87.0199 61.4258 86.0433C59.1471 85.0667 57.1615 83.7321 55.4688 82.0394C53.776 80.3467 52.4414 78.361 51.4648 76.0824C50.4883 73.8037 50 71.3623 50 68.7581C50 67.1956 50.1628 65.4704 50.4883 63.5824C50.8138 61.6943 51.3346 60.0016 52.0508 58.5042L70.3125 21.8831C70.8984 20.8415 71.7773 19.9951 72.9492 19.3441L68.75 15.1449L15.0391 68.7581L28.2227 81.8441C31.1523 81.5185 33.9193 81.7139 36.5234 82.43C39.1276 83.1462 41.4062 84.3506 43.3594 86.0433C45.3125 87.736 46.875 89.7868 48.0469 92.1956C49.2188 94.6045 49.8372 97.3063 49.9023 100.301C52.5065 100.431 54.9479 100.952 57.2266 101.864C59.5052 102.775 61.4583 104.077 63.0859 105.77C64.7135 107.463 66.0482 109.416 67.0898 111.629C68.1315 113.843 68.6523 116.317 68.6523 119.051C71.2565 119.181 73.6979 119.702 75.9766 120.614C78.2552 121.525 80.2083 122.827 81.8359 124.52C83.4635 126.213 84.7982 128.166 85.8398 130.379C86.8815 132.593 87.4023 135.067 87.4023 137.801C90.0716 137.931 92.5456 138.485 94.8242 139.461C97.1029 140.438 99.0885 141.772 100.781 143.465C102.474 145.158 103.809 147.176 104.785 149.52C105.762 151.864 106.25 154.37 106.25 157.039C106.25 159.969 105.664 162.703 104.492 165.243C103.32 167.782 101.628 169.995 99.4141 171.883C100.391 172.795 101.27 173.543 102.051 174.129C102.832 174.715 103.971 175.008 105.469 175.008C107.357 175.008 108.984 174.325 110.352 172.957C111.719 171.59 112.435 169.963 112.5 168.075C112.5 166.121 111.816 164.461 110.449 163.094L119.238 154.207L125.586 160.457C127.083 161.825 128.711 162.508 130.469 162.508C132.357 162.508 133.984 161.825 135.352 160.457C136.719 159.09 137.435 157.463 137.5 155.575C137.5 153.621 136.816 151.961 135.449 150.594L124.414 139.559L133.301 130.77L144.238 141.707C145.605 143.075 147.266 143.758 149.219 143.758C151.172 143.758 152.832 143.075 154.199 141.707C155.566 140.34 156.25 138.68 156.25 136.727C156.25 134.774 155.566 133.114 154.199 131.746L143.164 120.809L152.051 111.922L163.086 122.957C164.453 124.325 166.081 125.008 167.969 125.008ZM184.863 68.7581L129.59 13.387L80.3711 29.7933L63.3789 63.7777C63.0534 64.3636 62.8255 65.1774 62.6953 66.2191C62.5651 67.2607 62.5 68.1071 62.5 68.7581C62.5 70.4508 63.1185 71.9157 64.3555 73.1527C65.5924 74.3896 67.0573 75.0081 68.75 75.0081C70.5078 75.0081 72.1354 74.6826 73.6328 74.0316C75.1302 73.3805 76.4323 72.5016 77.5391 71.3949C78.6458 70.2881 79.5573 68.9534 80.2734 67.3909C80.9896 65.8284 81.3151 64.2008 81.25 62.5081C81.25 59.0576 81.901 55.835 83.2031 52.8402C84.5052 49.8454 86.2956 47.1761 88.5742 44.8324C90.8529 42.4886 93.4896 40.6982 96.4844 39.4613C99.4792 38.2243 102.734 37.5732 106.25 37.5081C107.292 37.5081 108.398 37.6058 109.57 37.8011C110.742 37.9964 111.979 38.2568 113.281 38.5824C114.583 38.9079 115.723 39.3636 116.699 39.9495C117.676 40.5355 118.62 41.2191 119.531 42.0003L165.625 88.0941L184.863 68.7581Z" fill="black"/>
</svg>
