<svg width="417" height="448" viewBox="0 0 417 448" fill="none"
    xmlns="http://www.w3.org/2000/svg">
    <path d="M284.646 32.58C265.186 11.57 238.006 0 208.006 0C177.846 0 150.576 11.5 131.206 32.38C111.626 53.49 102.086 82.18 104.326 113.16C108.766 174.28 155.276 224 208.006 224C260.736 224 307.166 174.29 311.676 113.18C313.946 82.48 304.346 53.85 284.646 32.58ZM384.006 448H32.0057C27.3984 448.06 22.8356 447.092 18.6494 445.167C14.4631 443.241 10.7587 440.407 7.80572 436.87C1.30572 429.1 -1.31428 418.49 0.625719 407.76C9.06572 360.94 35.4057 321.61 76.8057 294C113.586 269.49 160.176 256 208.006 256C255.836 256 302.426 269.5 339.206 294C380.606 321.6 406.946 360.93 415.386 407.75C417.326 418.48 414.706 429.09 408.206 436.86C405.254 440.399 401.55 443.235 397.363 445.162C393.177 447.089 388.614 448.059 384.006 448Z" fill=" #d7d7d7"/>
</svg>
